<?xml version="1.0" encoding="UTF-8"?>
<!DOCTYPE svg PUBLIC "-//W3C//DTD SVG 1.1//EN" "http://www.w3.org/Graphics/SVG/1.1/DTD/svg11.dtd">
<!-- Creator: CorelDRAW -->
<?xml-stylesheet href="weblogo.css" type="text/css"?>
<svg xmlns="http://www.w3.org/2000/svg" xml:space="preserve" width="297mm" height="210mm" version="1.1" style="shape-rendering:geometricPrecision; text-rendering:geometricPrecision; image-rendering:optimizeQuality; fill-rule:evenodd; clip-rule:evenodd"
viewBox="0 0 29700 21000"
 xmlns:xlink="http://www.w3.org/1999/xlink"
 xmlns:xodm="http://www.corel.com/coreldraw/odm/2003">
 <g id="Layer_x0020_1">
  <metadata id="CorelCorpID_0Corel-Layer"/>
  <image x="271.47" y="6822.3" width="7990.41" height="2698.75" xlink:href="weblogo_Images\weblogo_ImgID1.png"/>
  <path class="fil0 str0" d="M10049.43 9430.71l0 -1926.17 -564.44 0 0 -596.19 1816.8 0 0 596.19 -564.44 0 0 1926.17 -687.92 0zm1588.09 0l0 -2522.36 1545.17 0 0 553.86 -874.89 0 0 437.44 824.91 0 0 539.75 -824.91 0 0 426.87 874.89 0 0 564.44 -1545.17 0zm3827.05 -2423.58l0 751.41c-94.07,-104.66 -188.15,-181.09 -281.63,-229.89 -93.49,-48.8 -194.03,-73.5 -300.45,-73.5 -197.56,0 -357.48,67.62 -479.78,202.26 -122.3,134.65 -183.45,310.45 -183.45,527.41 0,202.26 62.33,369.82 186.98,502.7 124.65,133.47 283.4,199.91 476.25,199.91 106.42,0 206.96,-24.1 300.45,-72.91 93.48,-48.21 187.56,-125.23 281.63,-230.48l0 751.42c-108.77,52.92 -217.55,92.9 -325.14,119.36 -108.19,26.45 -216.96,39.39 -327.5,39.39 -137.58,0 -264.58,-16.46 -381,-48.8 -116.41,-32.93 -223.42,-82.9 -321.03,-149.34 -188.14,-126.42 -331.61,-285.17 -430.39,-476.84 -98.77,-192.27 -148.16,-408.05 -148.16,-647.94 0,-192.85 31.16,-368.06 94.07,-526.22 62.33,-158.17 156.99,-301.04 282.81,-429.81 119.36,-122.88 254,-214.6 403.93,-275.75 149.93,-60.56 316.33,-91.13 499.77,-91.13 110.54,0 219.31,12.93 327.5,39.39 107.59,26.46 216.37,66.44 325.14,119.36zm388.06 2423.58l0 -2522.36 687.92 0 0 980.72 917.22 0 0 -980.72 687.92 0 0 2522.36 -687.92 0 0 -1026.58 -917.22 0 0 1026.58 -687.92 0zm3932.89 0l0 -2522.36 687.92 0 0 980.72 917.22 0 0 -980.72 687.92 0 0 2522.36 -687.92 0 0 -1026.58 -917.22 0 0 1026.58 -687.92 0zm2814.58 -2522.36l684.39 0 0 1227.08c0,179.91 4.7,309.85 13.52,388.05 9.41,78.79 24.7,144.64 47.04,197.56 25.87,64.09 72.32,113.48 137.58,147.58 65.27,33.51 145.23,50.56 239.3,50.56 94.08,0 173.45,-17.05 238.72,-50.56 64.67,-34.1 111.12,-83.49 138.17,-147.58 22.34,-52.92 37.63,-118.77 47.04,-197.56 8.82,-78.2 13.52,-208.14 13.52,-388.05l0 -172.28 0 -1054.8 684.39 0 0 1333.5c0,276.93 -16.46,480.95 -49.98,612.66 -33.51,131.11 -89.37,243.41 -168.74,336.9 -85.85,101.72 -204.03,178.74 -354.55,229.89 -150.51,51.16 -332.78,76.44 -547.39,76.44 -216.37,0 -398.64,-25.28 -548.57,-76.44 -149.93,-51.15 -268.7,-128.17 -355.72,-229.89 -78.2,-93.49 -134.05,-205.79 -168.15,-336.9 -33.52,-131.71 -50.57,-335.73 -50.57,-612.66l0 -261.65 0 -1071.85zm3403.72 1008.94l137.58 0c169.92,0 286.34,-18.81 349.84,-55.85 62.91,-37.63 94.66,-102.31 94.66,-194.03 0,-95.25 -29.39,-161.69 -88.78,-200.5 -58.8,-38.22 -174.04,-57.62 -345.13,-57.62l-148.17 0 0 508zm-638.53 1513.42l0 -2522.36 692.03 0c284.58,0 483.31,9.4 596.79,27.63 112.89,18.23 209.9,49.98 291.63,94.66 92.89,51.74 164.04,121.12 212.84,207.55 48.8,87.02 72.91,186.98 72.91,301.04 0,143.46 -36.46,257.53 -109.36,342.2 -72.91,84.08 -189.33,148.16 -349.25,192.26 178.74,13.52 319.26,76.44 419.8,188.15 101.13,112.3 151.7,261.64 151.7,449.2 0,134.06 -28.23,252.24 -85.26,354.54 -56.44,102.31 -138.17,181.69 -243.42,237.54 -85.84,45.86 -192.26,78.79 -318.08,98.19 -126.42,19.4 -332.79,29.4 -619.72,29.4l-712.61 0zm638.53 -515.06l241.06 0c162.87,0 278.11,-20.57 345.73,-61.14 67.61,-41.16 101.13,-109.37 101.13,-204.62 0,-105.83 -31.17,-179.32 -92.9,-221.66 -61.74,-41.74 -176.39,-62.91 -343.37,-62.91l-251.65 0 0 550.33z"/>
 </g>
</svg>
