<?xml version="1.0" encoding="UTF-8"?>
<!DOCTYPE svg PUBLIC "-//W3C//DTD SVG 1.1//EN" "http://www.w3.org/Graphics/SVG/1.1/DTD/svg11.dtd">
<!-- Creator: CorelDRAW -->
<svg xmlns="http://www.w3.org/2000/svg" xml:space="preserve" width="67.1458mm" height="13.429mm" version="1.1" style="shape-rendering:geometricPrecision; text-rendering:geometricPrecision; image-rendering:optimizeQuality; fill-rule:evenodd; clip-rule:evenodd"
viewBox="0 0 6714.58 1342.9"
 xmlns:xlink="http://www.w3.org/1999/xlink"
 xmlns:xodm="http://www.corel.com/coreldraw/odm/2003">
 <defs>
  <style type="text/css">
   <![CDATA[
    .fil0 {fill:#0098DA;fill-rule:nonzero}
   ]]>
  </style>
 </defs>
 <g id="Layer_x0020_1">
  <metadata id="CorelCorpID_0Corel-Layer"/>
  <path class="fil0" d="M709.34 237.4l113.89 0 143.67 430.44 144.39 -430.44 113.59 0 103.42 617.09 -113.31 0 -65.89 -389.76 -130.64 389.76 -103.7 0 -130.07 -389.76 -67.18 389.76 -114.6 0 106.43 -617.09zm1039.95 160.71l113.45 0 0 390.49c0,77.07 -15.61,133.79 -46.7,170.03 -41.69,49.13 -104.57,73.77 -188.65,73.77 -44.7,0 -82.37,-5.58 -113.02,-16.76 -30.51,-11.18 -56.3,-27.65 -77.21,-49.42 -21.05,-21.63 -36.67,-47.99 -46.7,-79.08l126.77 0c11.18,12.75 25.64,22.35 43.41,28.94 17.61,6.45 38.53,9.73 62.73,9.73 30.94,0 55.73,-4.72 74.49,-14.18 18.91,-9.45 32.09,-21.62 39.82,-36.52 7.74,-15.04 11.6,-40.83 11.6,-77.49 -20.2,20.2 -41.4,34.81 -63.6,43.55 -22.2,8.88 -47.27,13.32 -75.35,13.32 -61.45,0 -113.45,-22.06 -155.84,-66.18 -42.4,-44.12 -63.61,-99.99 -63.61,-167.6 0,-72.34 22.5,-130.49 67.32,-174.33 40.83,-39.68 89.39,-59.45 145.82,-59.45 26.36,0 51.28,4.86 74.77,14.47 23.36,9.59 46.85,25.5 70.48,47.56l0 -50.86zm-119.9 96.26c-36.24,0 -66.18,12.03 -89.67,36.1 -23.64,24.07 -35.39,54.29 -35.39,90.67 0,37.81 12.04,68.91 36.24,93.11 24.07,24.21 54.43,36.24 90.96,36.24 35.66,0 65.03,-11.89 88.23,-35.52 23.06,-23.63 34.67,-54.57 34.67,-92.96 0,-37.81 -11.6,-68.47 -34.95,-92.11 -23.35,-23.63 -53.28,-35.52 -90.1,-35.52zm336.62 -272.45l114.31 0 0 632.56 -114.31 0 0 -632.56zm414.7 75.63l0 -60.16 337.76 0 0 60.16 -137.51 0 0 556.93 -62.74 0 0 -556.93 -137.51 0zm802.88 405.67l49.57 26.07c-16.33,31.66 -35.1,57.29 -56.44,76.77 -21.35,19.34 -45.26,34.24 -71.91,44.41 -26.79,10.17 -56.87,15.19 -90.53,15.19 -74.77,0 -133.07,-24.35 -175.19,-73.06 -42.11,-48.71 -63.17,-103.7 -63.17,-165.02 0,-57.73 17.91,-109.3 53.58,-154.41 45.12,-57.45 105.71,-86.23 181.48,-86.23 78.07,0 140.52,29.51 187.08,88.38 33.09,41.54 49.99,93.4 50.57,155.71l-412.54 0c1.15,52.86 18.19,96.11 50.99,129.77 32.95,33.81 73.63,50.72 121.91,50.72 23.35,0 46.13,-4.01 68.19,-12.04 22.06,-8.02 40.82,-18.62 56.29,-31.94 15.47,-13.33 32.23,-34.67 50.14,-64.32zm0.58 -122.9c-7.88,-31.38 -19.34,-56.3 -34.38,-75.07 -15.19,-18.76 -35.09,-33.8 -59.87,-45.26 -24.79,-11.46 -50.86,-17.19 -78.07,-17.19 -45.12,0 -83.8,14.32 -116.17,43.11 -23.77,21.06 -41.54,52.43 -53.72,94.41l342.22 0zm616.09 -87.38l-46.55 28.93c-40.39,-53.28 -95.54,-79.93 -165.44,-79.93 -55.86,0 -102.27,17.91 -139.23,53.58 -36.81,35.66 -55.29,78.93 -55.29,129.92 0,33.22 8.46,64.45 25.5,93.68 16.9,29.23 40.25,51.99 69.9,68.19 29.51,16.18 62.74,24.21 99.55,24.21 67.32,0 122.33,-26.65 165.02,-79.93l46.55 30.66c-21.92,32.8 -51.27,58.16 -88.09,76.35 -36.96,18.05 -78.93,27.07 -126.06,27.07 -72.48,0 -132.49,-22.92 -180.19,-68.62 -47.7,-45.83 -71.48,-101.41 -71.48,-167.02 0,-43.97 11.18,-84.95 33.52,-122.76 22.2,-37.81 52.86,-67.32 91.82,-88.53 39.11,-21.2 82.65,-31.79 130.93,-31.79 30.36,0 59.59,4.58 87.81,13.74 28.08,9.17 51.99,21.21 71.62,35.96 19.77,14.76 36.39,33.52 50.14,56.3zm112.6 -271.02l58.44 0 0 258.55c23.77,-31.23 50.14,-54.71 78.64,-70.19 28.65,-15.61 59.59,-23.35 92.96,-23.35 34.23,0 64.6,8.59 91.1,25.93 26.5,17.33 46.13,40.68 58.73,69.76 12.61,29.22 18.91,74.92 18.91,137.22l0 234.63 -58.45 0 0 -217.44c0,-52.43 -2.14,-87.52 -6.3,-105.15 -7.3,-30.08 -20.63,-52.72 -39.81,-68.04 -19.2,-15.18 -44.41,-22.77 -75.64,-22.77 -35.67,0 -67.61,11.74 -95.83,35.23 -28.22,23.35 -46.85,52.43 -55.87,87.09 -5.58,22.35 -8.45,63.61 -8.45,123.91l0 167.17 -58.44 0 0 -632.56zm770.64 15.47l61.88 0 0 258.69 314.56 0 0 -258.69 61.88 0 0 617.09 -61.88 0 0 -298.23 -314.56 0 0 298.23 -61.88 0 0 -617.09zm570.83 160.71l58.44 0 0 213c0,52 2.86,87.67 8.45,107.3 8.31,27.93 24.49,49.98 48.14,66.18 23.63,16.18 51.99,24.35 84.79,24.35 32.81,0 60.59,-7.88 83.51,-23.64 22.78,-15.9 38.68,-36.52 47.27,-62.31 5.87,-17.62 8.88,-54.86 8.88,-111.88l0 -213 60.16 0 0 223.75c0,62.88 -7.3,110.15 -22.06,141.95 -14.61,31.94 -36.81,56.87 -66.32,74.77 -29.51,18.05 -66.47,27.07 -111.01,27.07 -44.55,0 -81.65,-9.02 -111.45,-27.07 -29.79,-17.91 -52.14,-43.12 -66.74,-75.35 -14.76,-32.23 -22.06,-80.78 -22.06,-145.53l0 -219.6zm534.44 456.38l0 -632.56 58.44 0 0 255.26c24.64,-30.23 52.15,-52.86 82.65,-67.76 30.51,-15.04 63.89,-22.48 100.13,-22.48 64.6,0 119.75,23.35 165.44,70.04 45.69,46.84 68.61,103.42 68.61,170.17 0,65.75 -23.06,122.04 -69.18,168.59 -46.13,46.56 -101.56,69.91 -166.45,69.91 -37.24,0 -70.91,-7.88 -101.14,-23.64 -30.22,-15.75 -56.87,-39.53 -80.07,-71.47l0 83.94 -58.44 0zm235.35 -45.55c32.52,0 62.74,-8.03 90.24,-23.93 27.65,-16.04 49.57,-38.53 65.89,-67.46 16.33,-28.79 24.49,-59.45 24.49,-91.68 0,-32.23 -8.16,-63.03 -24.64,-92.25 -16.48,-29.07 -38.53,-51.85 -66.32,-68.18 -27.79,-16.19 -57.45,-24.35 -88.95,-24.35 -31.95,0 -62.46,8.16 -91.39,24.35 -28.79,16.32 -50.99,38.24 -66.46,65.74 -15.47,27.51 -23.21,58.45 -23.21,92.97 0,52.56 17.33,96.54 52.14,131.78 34.67,35.38 77.35,53 128.2,53z"/>
 </g>
</svg>
